<svg data-v-fde0c5aa="" xmlns="http://www.w3.org/2000/svg" viewBox="0 0 300 300" class="iconLeft"><!----><defs data-v-fde0c5aa=""><!----></defs><rect data-v-fde0c5aa="" fill="#2E1435" x="0" y="0" width="300px" height="300px" class="logo-background-square"></rect><defs data-v-fde0c5aa=""><!----></defs><g data-v-fde0c5aa="" id="429d205f-3284-4a85-b36e-652ecf1fd4f0" fill="#EAE8E7" transform="matrix(2.6003238631803063,0,0,2.6003238631803063,82.50189219416264,127.80623622453402)"><path d="M4.94 5.92C4.51 5.92 3.96 6.12 3.58 6.51L3.02 7.55L3.02 6.12L0.83 6.12L0.83 13.58L3.02 13.58L3.02 10.46C3.02 8.34 3.77 7.64 5.50 7.76L5.50 5.98C5.33 5.95 5.18 5.92 4.94 5.92ZM13.37 9.72C13.37 7.73 12.14 5.92 9.76 5.92C7.39 5.92 5.89 7.63 5.89 9.87C5.89 12.50 7.53 13.78 9.62 13.78C11.44 13.78 12.84 12.87 13.24 11.14L11.07 11.14C10.95 11.84 10.43 12.26 9.66 12.26C8.83 12.26 8.22 11.84 8.09 10.42L13.33 10.42C13.36 10.15 13.37 9.91 13.37 9.72ZM9.66 7.43C10.47 7.43 10.96 7.98 11.09 9.03L8.15 9.03C8.33 7.92 8.88 7.43 9.66 7.43ZM21.78 7.98C21.62 6.68 20.71 5.92 19.14 5.92C18.44 5.92 17.91 6.06 17.40 6.40L16.79 7.29L16.79 6.12L14.59 6.12L14.59 13.58L16.79 13.58L16.79 10.12C16.79 8.22 17.43 7.43 18.30 7.43C19.15 7.43 19.57 7.91 19.63 8.67C19.66 9.04 19.66 9.42 19.66 9.70L19.66 13.58L21.85 13.58L21.85 9.37C21.85 8.76 21.84 8.36 21.78 7.98ZM26.05 7.57L27.64 7.57L27.64 6.17L26.05 6.17L26.05 4.30L23.86 4.30L23.86 6.17L22.72 6.17L22.72 7.57L23.86 7.57L23.86 11.00C23.86 11.42 23.86 11.76 23.88 12.14C23.97 13.23 24.50 13.76 26.14 13.76C26.61 13.76 27.05 13.72 27.50 13.65L27.50 12.25C26.38 12.32 26.12 12.15 26.07 11.41C26.05 11.21 26.05 10.96 26.05 10.71ZM35.43 5.92C35 5.92 34.45 6.12 34.08 6.51L33.52 7.55L33.52 6.12L31.32 6.12L31.32 13.58L33.52 13.58L33.52 10.46C33.52 8.34 34.26 7.64 35.99 7.76L35.99 5.98C35.83 5.95 35.67 5.92 35.43 5.92ZM41.24 13.58L43.39 13.58C43.27 12.75 43.25 12.25 43.25 11.69L43.25 9.42C43.25 8.99 43.23 8.57 43.20 8.22C43.09 6.89 42.29 5.92 40.08 5.92C38.26 5.92 36.82 6.89 36.78 8.60L38.88 8.60C38.93 7.85 39.31 7.43 40.00 7.43C40.66 7.43 40.99 7.80 41.03 8.25C41.06 8.50 41.06 8.69 41.06 8.89L41.06 9.02L40.59 9.02C37.95 9.02 36.51 9.97 36.51 11.59C36.51 13.01 37.65 13.78 38.91 13.78C39.59 13.78 40.22 13.62 40.75 13.29L41.09 12.49ZM39.77 12.26C39.17 12.26 38.77 11.97 38.77 11.41C38.77 10.54 39.70 10.21 41.06 10.32L41.06 10.86C41.06 11.79 40.43 12.26 39.77 12.26ZM52.11 7.98C51.94 6.68 51.03 5.92 49.46 5.92C48.76 5.92 48.23 6.06 47.73 6.40L47.11 7.29L47.11 6.12L44.91 6.12L44.91 13.58L47.11 13.58L47.11 10.12C47.11 8.22 47.75 7.43 48.62 7.43C49.48 7.43 49.90 7.91 49.95 8.67C49.98 9.04 49.98 9.42 49.98 9.70L49.98 13.58L52.18 13.58L52.18 9.37C52.18 8.76 52.16 8.36 52.11 7.98ZM56.52 10.72L58.69 13.58L61.42 13.58L58.14 9.56L61.38 6.12L58.77 6.12L55.94 9.39L55.94 3.29L53.75 3.29L53.75 13.58L55.94 13.58L55.94 11.35ZM65.07 5.92C63.20 5.92 61.96 6.82 61.96 8.27C61.96 9.55 62.87 10.18 64.27 10.53C65.59 10.84 66.07 11.13 66.07 11.66C66.07 12.14 65.65 12.36 65.11 12.36C64.50 12.36 63.99 11.98 63.84 11.28L61.67 11.28C61.87 12.96 63.20 13.78 65.10 13.78C66.85 13.78 68.26 13.05 68.26 11.49C68.26 10.09 67.34 9.49 65.90 9.13C64.57 8.79 64.16 8.51 64.16 8.01C64.16 7.62 64.46 7.32 64.93 7.32C65.48 7.32 65.80 7.67 65.93 8.29L68.10 8.29C67.91 6.93 66.88 5.92 65.07 5.92Z"></path></g><defs data-v-fde0c5aa=""><!----></defs><g data-v-fde0c5aa="" id="08363f14-b932-4dda-9b80-12881382dcc0" stroke="none" fill="#EAE8E7" transform="matrix(0.41830936187991663,0,0,0.41830936187991663,34.56908963769067,129.1236430909242)"><g clip-rule="evenodd"><path d="M12.983 10.59l17.018 88.223-5.872-59.049 29.021-1.892-.054-9.883L64.549 1 53.622 18.977z"></path><path d="M59.389 54.548l5.16-53.541-8.74 39.716-19.612 1.045 1.57 20.462-7.766 36.583 12.057-39.899z"></path><path d="M62.8 67.182l.549-10.453-15.979 3.755-.032 11.797-17.337 26.532 21.68-27.616zM65.711 62.394l14.841-4.731 1.509-12.532-15.899 2.095zM72.07 44.502l10.988-1.417 1.581-10.278-8.079-.373L64.549 1l8.43 30.967z"></path><path d="M87.413 31.294l1.256-9.506-9.544-2.694L64.549 1l14.483 22.437-.422 7z"></path></g></g><!----></svg>